{"title":"Casino 1995 CEE 720p VC-1 DTS 5 1-EiMi","uid":7210211,"size":10239601586,"categoryP":"video","categoryS":"hd___movies","magnet":"?xt=urn:btih:dff332d56b75ad4eabf2e2e328ac1135f0d5b2f6&amp;dn=Casino+1995+CEE+720p+VC-1+DTS+5+1-EiMi&amp;tr=udp%3A%2F%2Ftracker.openbittorrent.com%3A80&amp;tr=udp%3A%2F%2Fopen.demonii.com%3A1337&amp;tr=udp%3A%2F%2Ftracker.coppersurfer.tk%3A6969&amp;tr=udp%3A%2F%2Fexodus.desync.com%3A6969","seeders":0,"leechers":0,"uploader":"jewell10","files":-1,"time":1335214435,"description":"[img]http://img94.imageshack.us/img94/2135/casino1995dvdc1.jpg[/img]\n\nIMDB:[url]http://www.imdb.com/title/tt0112641/[/url]\n\n\n\n[quote]\nGeneral\nFormat                                   : Matroska\nFormat version                           : Version 2\nFile size                                : 9.54 GiB\nDuration                                 : 2h 58mn\nOverall bit rate mode                    : Variable\nOverall bit rate                         : 7 646 Kbps\nMovie name                               : Cazino\n\n\nVideo\nID                                       : 1\nFormat                                   : AVC\nFormat/Info                              : Advanced Video Codec\nFormat profile                           : &lt;a class=&quot;__cf_email__&quot; href=&quot;/cdn-cgi/l/email-protection&quot; data-cfemail=&quot;3e765759567e720a100f&quot;&gt;[email&amp;#160;protected]&lt;/a&gt;&lt;script cf-hash='f9e31' type=&quot;text/javascript&quot;&gt;\n/* &lt;![CDATA[ */!function(){try{var t=&quot;currentScript&quot;in document?document.currentScript:function(){for(var t=document.getElementsByTagName(&quot;script&quot;),e=t.length;e--;)if(t[e].getAttribute(&quot;cf-hash&quot;))return t[e]}();if(t&amp;&amp;t.previousSibling){var e,r,n,i,c=t.previousSibling,a=c.getAttribute(&quot;data-cfemail&quot;);if(a){for(e=&quot;&quot;,r=parseInt(a.substr(0,2),16),n=2;a.length-n;n+=2)i=parseInt(a.substr(n,2),16)^r,e+=String.fromCharCode(i);e=document.createTextNode(e),c.parentNode.replaceChild(e,c)}}}catch(u){}}();/* ]]&gt; */&lt;/script&gt;\nFormat settings, CABAC                   : Yes\nFormat settings, ReFrames                : 9 frames\nCodec ID                                 : V_MPEG4/ISO/AVC\nDuration                                 : 2h 58mn\nBit rate mode                            : Variable\nBit rate                                 : 6 144 Kbps\nMaximum bit rate                         : 35.0 Mbps\nWidth                                    : 1 280 pixels\nHeight                                   : 544 pixels\nDisplay aspect ratio                     : 2.35:1\nFrame rate                               : 23.976 fps\nColor space                              : YUV\nChroma subsampling                       : 4:2:0\nBit depth                                : 8 bits\nScan type                                : Progressive\nBits/(Pixel*Frame)                       : 0.368\nStream size                              : 7.46 GiB (78%)\nWriting library                          : x264 core 120 r2120 0c7dab9\nDefault                                  : Yes\nForced                                   : No\n\nAudio\nID                                       : 2\nFormat                                   : DTS\nFormat/Info                              : Digital Theater Systems\nCodec ID                                 : A_DTS\nDuration                                 : 2h 58mn\nBit rate mode                            : Constant\nBit rate                                 : 1 510 Kbps\nChannel(s)                               : 6 channels\nChannel positions                        : Front: L C R, Side: L R, LFE\nSampling rate                            : 48.0 KHz\nBit depth                                : 24 bits\nCompression mode                         : Lossy\nStream size                              : 1.88 GiB (20%)\nLanguage                                 : English\nDefault                                  : Yes\nForced                                   : No\n\n[/quote]","torrent":{"xt":"urn:btih:dff332d56b75ad4eabf2e2e328ac1135f0d5b2f6","amp;dn":"Casino+1995+CEE+720p+VC-1+DTS+5+1-EiMi","amp;tr":["udp%3A%2F%2Ftracker.openbittorrent.com%3A80","udp%3A%2F%2Fopen.demonii.com%3A1337","udp%3A%2F%2Ftracker.coppersurfer.tk%3A6969","udp%3A%2F%2Fexodus.desync.com%3A6969"],"infoHash":"dff332d56b75ad4eabf2e2e328ac1135f0d5b2f6","infoHashBuffer":{"type":"Buffer","data":[223,243,50,213,107,117,173,78,171,242,226,227,40,172,17,53,240,213,178,246]},"announce":[],"urlList":[]}}